<svg width="30" height="30" viewBox="0 0 30 30" fill="none" xmlns="http://www.w3.org/2000/svg">
<rect width="29.9769" height="30" rx="10" fill="#C4C4C4" fill-opacity="0.1"/>
<g clip-path="url(#clip0_3_12874)">
<path d="M22.4816 13.3333C22.4816 19.1667 14.9874 24.1667 14.9874 24.1667C14.9874 24.1667 7.49316 19.1667 7.49316 13.3333C7.49316 11.3442 8.28273 9.43656 9.68817 8.03004C11.0936 6.62352 12.9998 5.83334 14.9874 5.83334C16.975 5.83334 18.8812 6.62352 20.2866 8.03004C21.6921 9.43656 22.4816 11.3442 22.4816 13.3333Z" stroke="#17C2EC" stroke-width="2" stroke-linecap="round" stroke-linejoin="round"/>
<path d="M14.9873 15.8333C16.367 15.8333 17.4854 14.7141 17.4854 13.3333C17.4854 11.9526 16.367 10.8333 14.9873 10.8333C13.6077 10.8333 12.4893 11.9526 12.4893 13.3333C12.4893 14.7141 13.6077 15.8333 14.9873 15.8333Z" stroke="#17C2EC" stroke-width="2" stroke-linecap="round" stroke-linejoin="round"/>
</g>
<defs>
<clipPath id="clip0_3_12874">
<rect width="19.9846" height="20" fill="white" transform="translate(4.99512 5)"/>
</clipPath>
</defs>
</svg>
