<svg width="76" height="77" viewBox="0 0 76 77" fill="none" xmlns="http://www.w3.org/2000/svg">
<g filter="url(#filter0_d_3_12632)">
<rect x="2.91699" y="0.916748" width="69.8545" height="69.8545" rx="20.9563" fill="#C4C4C4" fill-opacity="0.1"/>
<g clip-path="url(#clip0_3_12632)">
<g clip-path="url(#clip1_3_12632)">
<path d="M48.5304 53.6818V49.607C48.5304 47.4455 47.6718 45.3726 46.1434 43.8443C44.615 42.3159 42.5421 41.4573 40.3807 41.4573H24.0813C21.9199 41.4573 19.847 42.3159 18.3186 43.8443C16.7903 45.3726 15.9316 47.4455 15.9316 49.607V53.6818" stroke="white" stroke-width="2.99376" stroke-linecap="round" stroke-linejoin="round"/>
<path d="M32.2317 33.3077C36.7327 33.3077 40.3814 29.6589 40.3814 25.158C40.3814 20.657 36.7327 17.0083 32.2317 17.0083C27.7308 17.0083 24.082 20.657 24.082 25.158C24.082 29.6589 27.7308 33.3077 32.2317 33.3077Z" stroke="white" stroke-width="2.99376" stroke-linecap="round" stroke-linejoin="round"/>
<path d="M60.7548 53.6818V49.607C60.7535 47.8013 60.1525 46.0472 59.0462 44.62C57.9399 43.1929 56.391 42.1736 54.6426 41.7222" stroke="white" stroke-width="2.99376" stroke-linecap="round" stroke-linejoin="round"/>
<path d="M46.4932 17.2729C48.2462 17.7218 49.8 18.7413 50.9096 20.1708C52.0191 21.6003 52.6214 23.3584 52.6214 25.168C52.6214 26.9775 52.0191 28.7356 50.9096 30.1651C49.8 31.5946 48.2462 32.6141 46.4932 33.063" stroke="white" stroke-width="2.99376" stroke-linecap="round" stroke-linejoin="round"/>
</g>
</g>
</g>
<defs>
<filter id="filter0_d_3_12632" x="0.122813" y="0.916748" width="75.4428" height="75.4428" filterUnits="userSpaceOnUse" color-interpolation-filters="sRGB">
<feFlood flood-opacity="0" result="BackgroundImageFix"/>
<feColorMatrix in="SourceAlpha" type="matrix" values="0 0 0 0 0 0 0 0 0 0 0 0 0 0 0 0 0 0 127 0" result="hardAlpha"/>
<feOffset dy="2.79418"/>
<feGaussianBlur stdDeviation="1.39709"/>
<feComposite in2="hardAlpha" operator="out"/>
<feColorMatrix type="matrix" values="0 0 0 0 0 0 0 0 0 0 0 0 0 0 0 0 0 0 0.1 0"/>
<feBlend mode="normal" in2="BackgroundImageFix" result="effect1_dropShadow_3_12632"/>
<feBlend mode="normal" in="SourceGraphic" in2="effect1_dropShadow_3_12632" result="shape"/>
</filter>
<clipPath id="clip0_3_12632">
<rect width="48.8981" height="48.8981" fill="white" transform="translate(13.3955 11.395)"/>
</clipPath>
<clipPath id="clip1_3_12632">
<rect width="48.8981" height="48.8981" fill="white" transform="translate(13.8945 10.896)"/>
</clipPath>
</defs>
</svg>
