<svg width="76" height="81" viewBox="0 0 76 81" fill="none" xmlns="http://www.w3.org/2000/svg">
<g filter="url(#filter0_d_3_12648)">
<rect x="2.91699" y="0.402344" width="69.8545" height="74.2044" rx="20.9563" fill="#C4C4C4" fill-opacity="0.1"/>
<g clip-path="url(#clip0_3_12648)">
<path d="M42.4182 42.9482V18.5782C42.4182 17.1432 41.8816 15.767 40.9263 14.7522C39.9711 13.7375 38.6755 13.1675 37.3246 13.1675C35.9738 13.1675 34.6782 13.7375 33.723 14.7522C32.7677 15.767 32.2311 17.1432 32.2311 18.5782V42.9482C30.5956 44.109 29.3549 45.7977 28.6922 47.765C28.0296 49.7323 27.9801 51.8738 28.551 53.8733C29.122 55.8728 30.2831 57.6242 31.863 58.8689C33.4429 60.1136 35.3577 60.7855 37.3246 60.7855C39.2916 60.7855 41.2064 60.1136 42.7863 58.8689C44.3662 57.6242 45.5273 55.8728 46.0983 53.8733C46.6692 51.8738 46.6197 49.7323 45.9571 47.765C45.2944 45.7977 44.0537 44.109 42.4182 42.9482Z" stroke="white" stroke-width="2.99376" stroke-linecap="round" stroke-linejoin="round"/>
</g>
</g>
<defs>
<filter id="filter0_d_3_12648" x="0.122813" y="0.402344" width="75.4428" height="79.7927" filterUnits="userSpaceOnUse" color-interpolation-filters="sRGB">
<feFlood flood-opacity="0" result="BackgroundImageFix"/>
<feColorMatrix in="SourceAlpha" type="matrix" values="0 0 0 0 0 0 0 0 0 0 0 0 0 0 0 0 0 0 127 0" result="hardAlpha"/>
<feOffset dy="2.79418"/>
<feGaussianBlur stdDeviation="1.39709"/>
<feComposite in2="hardAlpha" operator="out"/>
<feColorMatrix type="matrix" values="0 0 0 0 0 0 0 0 0 0 0 0 0 0 0 0 0 0 0.1 0"/>
<feBlend mode="normal" in2="BackgroundImageFix" result="effect1_dropShadow_3_12648"/>
<feBlend mode="normal" in="SourceGraphic" in2="effect1_dropShadow_3_12648" result="shape"/>
</filter>
<clipPath id="clip0_3_12648">
<rect width="48.8981" height="51.9431" fill="white" transform="translate(13.8945 11.0032)"/>
</clipPath>
</defs>
</svg>
